<?xml version="1.0" encoding="UTF-8"?>
<svg version="1.1" xmlns="http://www.w3.org/2000/svg" width="64" height="64">
<path d="M0 0 C4.1724031 0.51006598 6.08024151 1.59504611 8.98828125 4.59765625 C9.69404297 5.31630859 10.39980469 6.03496094 11.12695312 6.77539062 C11.84818359 7.53013672 12.56941406 8.28488281 13.3125 9.0625 C14.05306641 9.82111328 14.79363281 10.57972656 15.55664062 11.36132812 C17.38043834 13.23219159 19.19424304 15.11174492 21 17 C24.14940886 15.61457124 26.17880285 14.02112156 28.53125 11.5234375 C29.17707031 10.853125 29.82289062 10.1828125 30.48828125 9.4921875 C31.83333335 8.07661811 33.17446663 6.65731513 34.51171875 5.234375 C35.15753906 4.56664062 35.80335937 3.89890625 36.46875 3.2109375 C37.05076172 2.59524902 37.63277344 1.97956055 38.23242188 1.34521484 C40 0 40 0 44 0 C43.24907317 6.76282907 38.37011672 10.28890476 33.75 14.875 C32.89019531 15.76703125 32.03039063 16.6590625 31.14453125 17.578125 C29.88962891 18.83496094 29.88962891 18.83496094 28.609375 20.1171875 C27.84592773 20.88659668 27.08248047 21.65600586 26.29589844 22.44873047 C24 24 24 24 21.50219727 23.99975586 C18.42606187 22.77068235 16.70416323 21.22164799 14.35546875 18.88671875 C13.51435547 18.05076172 12.67324219 17.21480469 11.80664062 16.35351562 C10.51016602 15.03383789 10.51016602 15.03383789 9.1875 13.6875 C8.30384766 12.81931641 7.42019531 11.95113281 6.50976562 11.05664062 C5.67509766 10.21681641 4.84042969 9.37699219 3.98046875 8.51171875 C3.21629639 7.74303467 2.45212402 6.97435059 1.66479492 6.18237305 C0 4 0 4 0 0 Z " fill="#168680" transform="translate(10,20)"/>
</svg>
