<svg version="1.1" xmlns="http://www.w3.org/2000/svg" width="372px" height="336px">
<path d="M0 0 C5.15464734 0.48324819 8.81550319 3.18610761 13 6 C13.92232422 5.33291016 13.92232422 5.33291016 14.86328125 4.65234375 C16.07564453 3.80349609 16.07564453 3.80349609 17.3125 2.9375 C18.51326172 2.08478516 18.51326172 2.08478516 19.73828125 1.21484375 C20.48464844 0.81394531 21.23101562 0.41304687 22 0 C22.99 0.33 23.98 0.66 25 1 C24.67 2.32 24.34 3.64 24 5 C23.34 5 22.68 5 22 5 C22 5.66 22 6.32 22 7 C22.598125 6.79375 23.19625 6.5875 23.8125 6.375 C26 6 26 6 29 8 C29.845625 7.938125 30.69125 7.87625 31.5625 7.8125 C35.96021513 8.05237537 38.8121626 9.71973376 42.6328125 11.80859375 C44.86834701 13.0607547 44.86834701 13.0607547 46.9765625 13.4140625 C49.93814492 14.27166359 51.86588887 16.00999495 54.25 17.9375 C55.14203125 18.64777344 56.0340625 19.35804687 56.953125 20.08984375 C57.62859375 20.72019531 58.3040625 21.35054687 59 22 C59 22.66 59 23.32 59 24 C60.485 24.495 60.485 24.495 62 25 C65.77061245 29.66365224 68.36814349 34.53000322 70.88671875 39.9609375 C71.83226994 42.15394079 71.83226994 42.15394079 74 43 C74.6328125 44.92578125 74.6328125 44.92578125 75.125 47.3125 C75.29257813 48.09238281 75.46015625 48.87226562 75.6328125 49.67578125 C76 52 76 52 76 56 C76.66 56 77.32 56 78 56 C78.06058594 56.89203125 78.12117187 57.7840625 78.18359375 58.703125 C78.26738281 59.87359375 78.35117188 61.0440625 78.4375 62.25 C78.51871094 63.41015625 78.59992188 64.5703125 78.68359375 65.765625 C78.89431912 68.83387549 78.89431912 68.83387549 79.55859375 71.078125 C80.15068516 73.65608051 79.88641805 75.87168877 79.625 78.5 C79.2131462 82.76972484 78.85855032 87.03322725 78.5625 91.3125 C78.0275677 97.71497098 76.46047839 103.06590505 74 109 C73.76152344 109.67675781 73.52304688 110.35351562 73.27734375 111.05078125 C73.02082031 111.77652344 72.76429688 112.50226563 72.5 113.25 C72.2628125 113.93578125 72.025625 114.6215625 71.78125 115.328125 C71 117 71 117 69 118 C67.82513503 120.62616876 66.90985138 123.27044585 66 126 C65.01 126 64.02 126 63 126 C60.31943052 128.28636808 59.12589193 129.6223242 58 133 C57.46375 132.773125 56.9275 132.54625 56.375 132.3125 C53.8410662 131.74758023 53.8410662 131.74758023 51.25 133.4375 C47.12732828 135.41955371 44.52380048 135.23398968 40 135 C40 133 40 133 42.375 130.375 C45 128 45 128 47 128 C47 127.34 47 126.68 47 126 C45.515 125.505 45.515 125.505 44 125 C44.99 123.515 44.99 123.515 46 122 C46.66 122 47.32 122 48 122 C49.60871674 118.98156906 51.21113049 115.95983439 52.8125 112.9375 C53.26431641 112.08994141 53.71613281 111.24238281 54.18164062 110.36914062 C59.90256949 99.55366197 63.56595949 89.45110879 63 77 C61.02 77.66 59.04 78.32 57 79 C56.87044922 80.61455078 56.87044922 80.61455078 56.73828125 82.26171875 C55.20480451 99.05270965 50.36326419 113.17354523 37.125 124.4375 C28.12434768 131.20532486 18.16414389 133.8800931 7 133 C-5.24291256 130.76021134 -15.41472414 123.65389655 -22.6875 113.6875 C-29.37237493 103.25909511 -31.63207977 92.16729046 -33 80 C-34.98 80 -36.96 80 -39 80 C-36.73488453 93.83093232 -33.35780448 112.46699514 -22 122 C-21.01 122.495 -21.01 122.495 -20 123 C-20 123.99 -20 124.98 -20 126 C-20.66 126 -21.32 126 -22 126 C-19.41889311 130.58544817 -19.41889311 130.58544817 -15 133 C-15 133.66 -15 134.32 -15 135 C-21.50313209 135.46450943 -25.4174808 134.32575612 -31 131 C-31 131.66 -31 132.32 -31 133 C-31.66 133 -32.32 133 -33 133 C-34.7265625 131.25 -34.7265625 131.25 -36.625 129 C-37.25664062 128.2575 -37.88828125 127.515 -38.5390625 126.75 C-39.02117187 126.1725 -39.50328125 125.595 -40 125 C-40.99 125.495 -40.99 125.495 -42 126 C-42.66 123.03 -43.32 120.06 -44 117 C-44.99 117 -45.98 117 -47 117 C-47.103125 116.29875 -47.20625 115.5975 -47.3125 114.875 C-47.89204655 111.93362921 -47.89204655 111.93362921 -49.4375 109.25 C-51.36291248 105.24514205 -52.16975938 101.33989416 -53 97 C-53.18304688 96.18917969 -53.36609375 95.37835938 -53.5546875 94.54296875 C-54.01534913 91.91234838 -54.06369016 89.54202565 -54 86.875 C-53.94049864 81.9892775 -54.30045244 77.25917029 -54.87890625 72.41015625 C-55.00054282 69.98919604 -54.61600239 68.32150153 -54 66 C-53.97212191 63.66620563 -54.06332823 61.35505612 -54.16015625 59.0234375 C-54 57 -54 57 -52 55 C-51.50711164 53.09682412 -51.07812554 51.17676647 -50.6875 49.25 C-49.37346467 43.67530467 -47.84444084 41.12574139 -44 37 C-43.27128113 35.66756148 -42.58489069 34.31129362 -41.9375 32.9375 C-40.33672069 29.5609574 -38.57755906 26.74939633 -36 24 C-35.34 24 -34.68 24 -34 24 C-34 23.34 -34 22.68 -34 22 C-32.06640625 20.34375 -32.06640625 20.34375 -29.5625 18.5 C-26.25143208 16.20089737 -26.25143208 16.20089737 -24 13 C-21.66842508 12.65458149 -19.33491639 12.32205743 -17 12 C-16.01 11.34 -15.02 10.68 -14 10 C-13.01 10 -12.02 10 -11 10 C-11 9.34 -11 8.68 -11 8 C-10.06027344 7.90912109 -10.06027344 7.90912109 -9.1015625 7.81640625 C-8.28429687 7.73261719 -7.46703125 7.64882813 -6.625 7.5625 C-5.81289062 7.48128906 -5.00078125 7.40007813 -4.1640625 7.31640625 C-1.95727195 7.10909886 -1.95727195 7.10909886 0 6 C0.66 6.33 1.32 6.66 2 7 C2 6.34 2 5.68 2 5 C1.34 5 0.68 5 0 5 C0 3.35 0 1.7 0 0 Z M2 2 C3 4 3 4 3 4 Z M17 5 C16.67 5.66 16.34 6.32 16 7 C16.99 6.67 17.98 6.34 19 6 C18.34 5.67 17.68 5.34 17 5 Z M24 9 C23.67 9.66 23.34 10.32 23 11 C25.97 11.495 25.97 11.495 29 12 C29 11.34 29 10.68 29 10 C27.35 9.67 25.7 9.34 24 9 Z M-5 11 C-5 11.33 -5 11.66 -5 12 C-3.35 12 -1.7 12 0 12 C0.33 11.01 0.66 10.02 1 9 C-1.46278801 9 -2.85224119 9.85452863 -5 11 Z M0.75 13 C0.1725 13.66 -0.405 14.32 -1 15 C2.68754757 14.50168276 4.60490662 13.89932357 7 11 C2.99653977 10.55709077 2.99653977 10.55709077 0.75 13 Z M18 11 C19.72855926 13.14567913 19.72855926 13.14567913 22 15 C24.21858253 14.86358623 24.21858253 14.86358623 26 14 C22.31435916 11.54420303 22.31435916 11.54420303 18 11 Z M-18 15 C-15.83032311 15.95465783 -14.43671207 16.14401212 -12.17578125 15.3984375 C-10.4315257 14.64129615 -8.71372869 13.82390802 -7 13 C-7 12.67 -7 12.34 -7 12 C-11.67461851 11.67386382 -14.16674383 12.29417212 -18 15 Z M14 12 C14 12.66 14 13.32 14 14 C15.98 14.99 17.96 15.98 20 17 C19.28436734 14.9837767 19.28436734 14.9837767 18 13 C15.94999129 12.19471111 15.94999129 12.19471111 14 12 Z M31 12 C31 12.33 31 12.66 31 13 C36.47774766 14.58321067 36.47774766 14.58321067 42 16 C40.44098818 13.85420839 40.44098818 13.85420839 38 12 C34.3324787 11.66582071 34.3324787 11.66582071 31 12 Z M9 12 C7.68 12.99 6.36 13.98 5 15 C5.33 15.66 5.66 16.32 6 17 C7.32 16.01 8.64 15.02 10 14 C9.67 13.34 9.34 12.68 9 12 Z M12 14 C10.10665802 14.92721336 10.10665802 14.92721336 8.125 16.3125 C5.47885752 18.0682105 2.86745963 19.630563 0 21 C1.32 21.33 2.64 21.66 4 22 C4 23.65 4 25.3 4 27 C8.95 27 13.9 27 19 27 C18.34 26.67 17.68 26.34 17 26 C17.33 24.02 17.66 22.04 18 20 C18.99 19.67 19.98 19.34 21 19 C19.88625 18.360625 18.7725 17.72125 17.625 17.0625 C16.99851562 16.70285156 16.37203125 16.34320313 15.7265625 15.97265625 C14.50201525 15.28280949 13.25710923 14.62855462 12 14 Z M29 14 C29.66 15.32 30.32 16.64 31 18 C33.31 18 35.62 18 38 18 C37.34 17.01 36.68 16.02 36 15 C32.43230448 14.26393501 32.43230448 14.26393501 29 14 Z M-12 16 C-12.33 16.66 -12.66 17.32 -13 18 C-11.27523089 18.95502158 -11.27523089 18.95502158 -9 19 C-6.22877725 16.64573501 -6.22877725 16.64573501 -4 14 C-7.23861295 14 -9.09740189 14.6250851 -12 16 Z M-2 16 C-2.99 16.66 -3.98 17.32 -5 18 C-5 18.66 -5 19.32 -5 20 C-2.69 19.34 -0.38 18.68 2 18 C0.68 17.34 -0.64 16.68 -2 16 Z M45 16 C44.67 16.66 44.34 17.32 44 18 C47.40941454 21.17626927 47.40941454 21.17626927 51.8125 22.25 C52.8953125 22.12625 52.8953125 22.12625 54 22 C51.37051309 18.12047456 51.37051309 18.12047456 47.25 16.1875 C46.13625 16.0946875 46.13625 16.0946875 45 16 Z M-27 19 C-27.66 19.99 -28.32 20.98 -29 22 C-27.35 22 -25.7 22 -24 22 C-23.34 20.68 -22.68 19.36 -22 18 C-21.34 18 -20.68 18 -20 18 C-20 17.34 -20 16.68 -20 16 C-22.95400769 16 -24.58654902 17.37092059 -27 19 Z M25 16 C24.34 16.66 23.68 17.32 23 18 C25.31 18.66 27.62 19.32 30 20 C29.67 19.01 29.34 18.02 29 17 C27.09291157 16.08571661 27.09291157 16.08571661 25 16 Z M-20 19 C-20.33 20.32 -20.66 21.64 -21 23 C-19.68 22.67 -18.36 22.34 -17 22 C-17.33 21.01 -17.66 20.02 -18 19 C-18.66 19 -19.32 19 -20 19 Z M42 19 C42 19.99 42 20.98 42 22 C43.98 22.495 43.98 22.495 46 23 C45.34 21.68 44.68 20.36 44 19 C43.34 19 42.68 19 42 19 Z M-14 20 C-14.66 21.32 -15.32 22.64 -16 24 C-13.97954558 23.39816251 -11.97888961 22.72693904 -10 22 C-9.67 21.34 -9.34 20.68 -9 20 C-10.65 20 -12.3 20 -14 20 Z M21 20 C21.99 20.33 22.98 20.66 24 21 C23.25 25.75 23.25 25.75 21 28 C23.31 28.66 25.62 29.32 28 30 C28.33 28.35 28.66 26.7 29 25 C30.98 25 32.96 25 35 25 C32.33022122 21.54499217 29.13835997 20.94383648 25 20 C23.68 20 22.36 20 21 20 Z M34 20 C34 20.66 34 21.32 34 22 C35.98 22.66 37.96 23.32 40 24 C39.67 22.68 39.34 21.36 39 20 C37.35 20 35.7 20 34 20 Z M-11.4375 24.25 C-12.54996094 24.85328125 -13.66242188 25.4565625 -14.80859375 26.078125 C-20.3877546 29.12733453 -20.3877546 29.12733453 -23.625 34.1875 C-23.74875 34.785625 -23.8725 35.38375 -24 36 C-24.99 36.33 -25.98 36.66 -27 37 C-29.3300037 40.21717354 -29.3300037 40.21717354 -30 44 C-30.66 44 -31.32 44 -32 44 C-34.3890198 48.53338332 -34.3890198 48.53338332 -34.6875 53.4375 C-34.460625 53.953125 -34.23375 54.46875 -34 55 C-33.01 51.535 -33.01 51.535 -32 48 C-30.35 48 -28.7 48 -27 48 C-27.99 47.67 -28.98 47.34 -30 47 C-28.19587357 43.73539027 -27.16605307 42.11070205 -24 40 C-23.27034634 37.43717258 -23.27034634 37.43717258 -23 35 C-22.34 35 -21.68 35 -21 35 C-20.67 34.34 -20.34 33.68 -20 33 C-19.01 32.67 -18.02 32.34 -17 32 C-16.67 32.99 -16.34 33.98 -16 35 C-14.26033623 36.1860521 -14.26033623 36.1860521 -12 36 C-9.02208359 34.10614087 -9.02208359 34.10614087 -7 31 C-7.05728998 27.25639659 -7.05728998 27.25639659 -8 24 C-6.02 24.99 -4.04 25.98 -2 27 C-1.7763932 24.0745356 -1.7763932 24.0745356 -3 22 C-2.34 21.67 -1.68 21.34 -1 21 C-5.58957777 21 -7.45839365 22.06034148 -11.4375 24.25 Z M1 23 C2 25 2 25 2 25 Z M-37 28 C-36.67 28.66 -36.34 29.32 -36 30 C-32.18586998 28.8321734 -32.18586998 28.8321734 -29.6875 25.875 C-29.460625 25.25625 -29.23375 24.6375 -29 24 C-32.28158484 24 -34.37881108 26.17656423 -37 28 Z M54 24 C54.99 25.65 55.98 27.3 57 29 C58.32 28.67 59.64 28.34 61 28 C58.82575883 25.49962266 57.26954202 24.56371414 54 24 Z M-28 25 C-28.33 26.32 -28.66 27.64 -29 29 C-27.68 28.67 -26.36 28.34 -25 28 C-25.99 27.01 -26.98 26.02 -28 25 Z M-21 25 C-22.38232443 26.62626404 -23.71937515 28.2925002 -25 30 C-24.67 30.66 -24.34 31.32 -24 32 C-22.29115995 30.37660195 -20.62553283 28.70680947 -19 27 C-19 26.34 -19 25.68 -19 25 C-19.66 25 -20.32 25 -21 25 Z M35 25 C34.34 26.32 33.68 27.64 33 29 C33.99 29 34.98 29 36 29 C37.33981486 29.3062434 38.67511887 29.63451555 40 30 C40 31.65 40 33.3 40 35 C40.66 35 41.32 35 42 35 C42 34.34 42 33.68 42 33 C43.9375 33.8125 43.9375 33.8125 46 35 C46.33 35.99 46.66 36.98 47 38 C47.99 38 48.98 38 50 38 C50.33 39.65 50.66 41.3 51 43 C50.01 43 49.02 43 48 43 C48.33 43.99 48.66 44.98 49 46 C50.65 46 52.3 46 54 46 C53.690625 46.7425 53.38125 47.485 53.0625 48.25 C52.1905075 50.50692176 51.52332993 52.6450153 51 55 C54.62885324 55.15149298 54.62885324 55.15149298 58 54 C58.66 55.98 59.32 57.96 60 60 C58.68 60 57.36 60 56 60 C56 60.66 56 61.32 56 62 C58.475 61.505 58.475 61.505 61 61 C59 64 59 64 57 66 C58.65 66 60.3 66 62 66 C63.27957362 62.16127914 62.46714061 60.51090908 61.25 56.6875 C60.90453125 55.57761719 60.5590625 54.46773437 60.203125 53.32421875 C59.02328092 50.06432489 57.61367914 47.06506296 56 44 C55.34 44 54.68 44 54 44 C53.87625 43.4225 53.7525 42.845 53.625 42.25 C52.99351176 39.97664233 52.11141809 38.0746471 51 36 C50.34 36 49.68 36 49 36 C48.73832031 35.40574219 48.47664063 34.81148437 48.20703125 34.19921875 C45.79739344 29.80884307 41.84126201 26.54846103 37.0625 25.125 C36.381875 25.08375 35.70125 25.0425 35 25 Z M44 25 C45.36983503 28.16115776 45.9890638 28.9927092 49 31 C47.63016497 27.83884224 47.0109362 27.0072908 44 25 Z M31 26 C31 29 31 29 31 29 Z M51 26 C51 26.99 51 27.98 51 29 C51.99 29 52.98 29 54 29 C53.67 28.01 53.34 27.02 53 26 C52.34 26 51.68 26 51 26 Z M-18.9609375 44.234375 C-28.22073614 56.79364212 -30.45855084 69.71497197 -30 85 C-23.565 84.505 -23.565 84.505 -17 84 C-16.5527864 78.52174919 -16.5527864 78.52174919 -18 76 C-16.35 76.66 -14.7 77.32 -13 78 C-12.67 75.69 -12.34 73.38 -12 71 C-11.54625 71.495 -11.0925 71.99 -10.625 72.5 C-9.12364481 74.22609337 -9.12364481 74.22609337 -7 74 C-6.67 74.66 -6.34 75.32 -6 76 C-5.68340834 71.67324728 -6.3507839 68.85243072 -8.19921875 64.9453125 C-9.64393242 61.4357154 -10.28390594 57.71526449 -11 54 C-10.01 54 -9.02 54 -8 54 C-8 52.68 -8 51.36 -8 50 C-7.01 50.33 -6.02 50.66 -5 51 C-4.34 50.34 -3.68 49.68 -3 49 C-1.68 49.99 -0.36 50.98 1 52 C1.99 51.34 2.98 50.68 4 50 C4 51.32 4 52.64 4 54 C4.99 54 5.98 54 7 54 C7 54.66 7 55.32 7 56 C7.66 56 8.32 56 9 56 C9 56.99 9 57.98 9 59 C9.680625 58.814375 10.36125 58.62875 11.0625 58.4375 C14.57232191 57.91476057 17.52188063 58.38621423 21 59 C20.175 58.360625 19.35 57.72125 18.5 57.0625 C17.675 56.381875 16.85 55.70125 16 55 C16 54.67 16 54.34 16 54 C17.32 54.33 18.64 54.66 20 55 C18.68 53.35 17.36 51.7 16 50 C18.49361571 51.20381448 20.68143083 52.45428722 23 54 C22.690625 53.236875 22.38125 52.47375 22.0625 51.6875 C21.32106407 49.81210323 20.63771783 47.91315348 20 46 C20.66 46 21.32 46 22 46 C22.28875 46.969375 22.5775 47.93875 22.875 48.9375 C23.64214682 52.10664203 23.64214682 52.10664203 26 53 C25.34 50.03 24.68 47.06 24 44 C24.66 44 25.32 44 26 44 C26.66 47.3 27.32 50.6 28 54 C28.33 54 28.66 54 29 54 C29 50.37 29 46.74 29 43 C29.66 43 30.32 43 31 43 C31 45.97 31 48.94 31 52 C32.74627478 49.38058783 33.38722388 47.96175123 34 45 C34 47.31 34 49.62 34 52 C34.433125 51.566875 34.86625 51.13375 35.3125 50.6875 C37.65625 48.34375 37.65625 48.34375 40 46 C38.92578125 47.7578125 37.8515625 49.515625 36.77734375 51.2734375 C36.52082031 51.84320313 36.26429688 52.41296875 36 53 C36.495 53.99 36.495 53.99 37 55 C39.31 53.02 41.62 51.04 44 49 C42.68 50.98 41.36 52.96 40 55 C41.98 54.67 43.96 54.34 46 54 C44.35 55.32 42.7 56.64 41 58 C44.96 57.505 44.96 57.505 49 57 C49 57.66 49 58.32 49 59 C45.04 59.495 45.04 59.495 41 60 C41.33 60.66 41.66 61.32 42 62 C41.01 62.99 41.01 62.99 40 64 C42.97 64.66 45.94 65.32 49 66 C48.67 66.33 48.34 66.66 48 67 C45.66055264 66.71269945 43.3260857 66.38063221 41 66 C43.17424117 68.50037734 44.73045798 69.43628586 48 70 C48 70.66 48 71.32 48 72 C47.05125 71.484375 46.1025 70.96875 45.125 70.4375 C44.09375 69.963125 43.0625 69.48875 42 69 C41.01 69.495 41.01 69.495 40 70 C41.65 71.98 43.3 73.96 45 76 C41.04 72.535 41.04 72.535 37 69 C36.67 69.99 36.34 70.98 36 72 C38.44773499 75.83883904 41.59813396 79.15888037 45.5 81.5 C48.70709956 82.14141991 51.73953987 82.12786118 55 82 C56.04315517 67.39582764 50.86510692 53.09824408 41.8125 41.75 C34.14110749 33.52099526 23.79845614 28.12054632 12.5 27.625 C-0.26609106 28.1634643 -10.85168721 34.66374038 -18.9609375 44.234375 Z M32 30 C31.67 30.66 31.34 31.32 31 32 C31.99 32.33 32.98 32.66 34 33 C34 32.01 34 31.02 34 30 C33.34 30 32.68 30 32 30 Z M-29 31 C-30.35618499 32.12534105 -30.35618499 32.12534105 -30.0625 35.0625 C-30.041875 36.031875 -30.02125 37.00125 -30 38 C-29.34 37.67 -28.68 37.34 -28 37 C-27.34227572 33.97065509 -27.34227572 33.97065509 -27 31 C-27.66 31 -28.32 31 -29 31 Z M37 31 C37.33 31.66 37.66 32.32 38 33 C38.33 32.34 38.66 31.68 39 31 C38.34 31 37.68 31 37 31 Z M52 31 C52.44703986 35.47883696 52.44703986 35.47883696 55 39 C54.74438677 36.6568787 54.40729228 34.32156597 54 32 C53.34 31.67 52.68 31.34 52 31 Z M-38 32 C-40.40072955 34.88087546 -42.47291037 37.56404834 -44 41 C-40.19333016 39.55609075 -38.73397418 37.65047197 -37 34 C-37.33 33.34 -37.66 32.68 -38 32 Z M-35 32 C-36.12516085 33.83284443 -36.12516085 33.83284443 -37 36 C-36.67 36.99 -36.34 37.98 -36 39 C-33.9600281 37.63676257 -33.9600281 37.63676257 -32 36 C-32 35.34 -32 34.68 -32 34 C-32.66 34 -33.32 34 -34 34 C-34.33 33.34 -34.66 32.68 -35 32 Z M62 32 C62.87472593 36.95514502 62.87472593 36.95514502 66.125 40.4375 C66.74375 40.623125 67.3625 40.80875 68 41 C66.68775452 37.06326356 65.08089673 34.77280706 62 32 Z M59 33 C58.01 33.66 57.02 34.32 56 35 C56.99 36.485 56.99 36.485 58 38 C58.99 38 59.98 38 61 38 C61.33 38.66 61.66 39.32 62 40 C61.42547254 36.06924356 61.42547254 36.06924356 59 33 Z M-21 35 C-20.67 35.66 -20.34 36.32 -20 37 C-19.34 36.67 -18.68 36.34 -18 36 C-18.99 35.67 -19.98 35.34 -21 35 Z M37 35 C37.33 35.66 37.66 36.32 38 37 C38.66 37 39.32 37 40 37 C40 36.34 40 35.68 40 35 C39.01 35 38.02 35 37 35 Z M-18 38 C-17.67 38.66 -17.34 39.32 -17 40 C-16.67 39.34 -16.34 38.68 -16 38 C-16.66 38 -17.32 38 -18 38 Z M45 38 C45 38.66 45 39.32 45 40 C44.01 40.33 43.02 40.66 42 41 C43.485 41.99 43.485 41.99 45 43 C45 42.34 45 41.68 45 41 C45.66 41 46.32 41 47 41 C46.67 40.01 46.34 39.02 46 38 C45.67 38 45.34 38 45 38 Z M56 38 C56.78318689 41.91593446 58.39179858 45.36406635 60 49 C61.10336858 45.68989426 61.13531135 43.3186024 60 40 C58.03241727 38.63979849 58.03241727 38.63979849 56 38 Z M-34 39 C-34.53229326 40.26607607 -35.05044544 41.53810412 -35.5625 42.8125 C-35.85253906 43.52019531 -36.14257812 44.22789063 -36.44140625 44.95703125 C-37.25063024 47.1735067 -37.25063024 47.1735067 -36 50 C-35.32591692 48.73308493 -34.66099503 47.46129251 -34 46.1875 C-33.62875 45.47980469 -33.2575 44.77210937 -32.875 44.04296875 C-31.80314642 41.91079271 -31.80314642 41.91079271 -32 39 C-32.66 39 -33.32 39 -34 39 Z M-24 41 C-23 43 -23 43 -23 43 Z M-41 42 C-41.66 44.64 -42.32 47.28 -43 50 C-40.44496043 48.71711243 -40.44496043 48.71711243 -38 47 C-38 46.01 -38 45.02 -38 44 C-38.66 44 -39.32 44 -40 44 C-40.33 43.34 -40.66 42.68 -41 42 Z M68 43 C68.13086126 48.94757926 68.13086126 48.94757926 71.5625 53.5 C72.366875 53.995 73.17125 54.49 74 55 C73.19618592 48.87460497 73.19618592 48.87460497 69.875 43.9375 C69.25625 43.628125 68.6375 43.31875 68 43 Z M-46 44.5 C-48.79387293 47.99234116 -48.7052718 50.57907701 -49 55 C-44.6409923 51.51279384 -44.05447817 48.27239085 -43 43 C-44.28333333 42.9 -44.28333333 42.9 -46 44.5 Z M65 42 C65 42.66 65 43.32 65 44 C64.01 44.33 63.02 44.66 62 45 C64.475 47.97 64.475 47.97 67 51 C68.25541557 47.23375329 67.37061958 45.62811066 66 42 C65.67 42 65.34 42 65 42 Z M46 45 C46.66 45.66 47.32 46.32 48 47 C48 46.34 48 45.68 48 45 C47.34 45 46.68 45 46 45 Z M-40 50 C-40.33 53.63 -40.66 57.26 -41 61 C-40.01 61.495 -40.01 61.495 -39 62 C-38.01751476 57.9472484 -37.91840426 54.16138263 -38 50 C-38.66 50 -39.32 50 -40 50 Z M63 50 C62.62447835 56.31268603 62.62447835 56.31268603 65 62 C66.37058195 57.88825414 65.75640862 55.26339405 65 51 C64.34 50.67 63.68 50.34 63 50 Z M-4 52 C-3.67 53.65 -3.34 55.3 -3 57 C-2.34 55.68 -1.68 54.36 -1 53 C-1.99 52.67 -2.98 52.34 -4 52 Z M33 52 C34 54 34 54 34 54 Z M-32 53 C-30.84826645 55.46800047 -29.95216435 57.04783565 -28 59 C-28.33 57.35 -28.66 55.7 -29 54 C-29.99 53.67 -30.98 53.34 -32 53 Z M-7 53 C-6.67 54.32 -6.34 55.64 -6 57 C-5.67 56.01 -5.34 55.02 -5 54 C-5.66 53.67 -6.32 53.34 -7 53 Z M66 53 C67 55 67 55 67 55 Z M-46 56 C-46.25015873 59.58357241 -46.25015873 59.58357241 -46 63 C-45.01 62.34 -44.02 61.68 -43 61 C-42.26393501 57.43230448 -42.26393501 57.43230448 -42 54 C-43.46225016 53.90754997 -43.46225016 53.90754997 -46 56 Z M0 54 C0 55.65 0 57.3 0 59 C0.66 58.67 1.32 58.34 2 58 C2 56.68 2 55.36 2 54 C1.34 54 0.68 54 0 54 Z M-36 55 C-36.33 57.31 -36.66 59.62 -37 62 C-35.87483915 60.16715557 -35.87483915 60.16715557 -35 58 C-35.33 57.01 -35.66 56.02 -36 55 Z M67 55 C66.66574265 57.37374861 66.66574265 57.37374861 67 60 C68.9004467 61.84315671 68.9004467 61.84315671 71 63 C71 61.02 71 59.04 71 57 C69.68 56.34 68.36 55.68 67 55 Z M5 57 C4.01 58.485 4.01 58.485 3 60 C3.99 60 4.98 60 6 60 C5.67 59.01 5.34 58.02 5 57 Z M72 57 C72.28127421 58.48117801 72.57533732 59.95993249 72.875 61.4375 C73.03742188 62.26121094 73.19984375 63.08492187 73.3671875 63.93359375 C73.57601562 64.61550781 73.78484375 65.29742187 74 66 C74.66 66.33 75.32 66.66 76 67 C76.45256834 62.23080276 76.45256834 62.23080276 74.5625 58.0625 C73.17710009 56.90628166 73.17710009 56.90628166 72 57 Z M-50 58 C-51.77759876 62.96920684 -51.77759876 62.96920684 -51 68 C-48.64551835 65.44931155 -48.01672076 64.28982642 -47.8125 60.75 C-47.9053125 59.38875 -47.9053125 59.38875 -48 58 C-48.66 58 -49.32 58 -50 58 Z M12 59 C11.67 59.99 11.34 60.98 11 62 C14.63 62 18.26 62 22 62 C18.39338934 60.19669467 15.91606575 59.53400897 12 59 Z M27 59 C26.67 60.65 26.34 62.3 26 64 C26.66 63.34 27.32 62.68 28 62 C30.26274788 62.35355436 31.95088852 62.97544426 34 64 C33.34 62.35 32.68 60.7 32 59 C30.35 59 28.7 59 27 59 Z M-33 60 C-33.66 60.66 -34.32 61.32 -35 62 C-32 63.33333333 -32 63.33333333 -29 62 C-29 61.34 -29 60.68 -29 60 C-30.32 60 -31.64 60 -33 60 Z M6 61 C6.33 61.66 6.66 62.32 7 63 C7.33 62.34 7.66 61.68 8 61 C7.34 61 6.68 61 6 61 Z M-38 62 C-37 66 -37 66 -37 66 Z M-43 63 C-42.67039784 68.01535052 -42.67039784 68.01535052 -40 72 C-39.73067479 67.34947128 -39.73067479 67.34947128 -41 63 C-41.66 63 -42.32 63 -43 63 Z M9 63 C8.67 63.66 8.34 64.32 8 65 C8.99 64.67 9.98 64.34 11 64 C10.34 63.67 9.68 63.34 9 63 Z M66 63 C64.64560332 65.70879335 64.93498549 68.00933268 65 71 C67.5654594 68.4345406 67.54046087 66.52313332 68 63 C67.34 63 66.68 63 66 63 Z M-31 64 C-30 66 -30 66 -30 66 Z M13 64 C13 64.33 13 64.66 13 65 C15.31 65 17.62 65 20 65 C20 64.67 20 64.34 20 64 C17.69 64 15.38 64 13 64 Z M-48 67 C-48.25015873 70.58357241 -48.25015873 70.58357241 -48 74 C-47.01 73.34 -46.02 72.68 -45 72 C-44.26393501 68.43230448 -44.26393501 68.43230448 -44 65 C-45.46225016 64.90754997 -45.46225016 64.90754997 -48 67 Z M-36 65 C-35.67 65.66 -35.34 66.32 -35 67 C-33.68 66.67 -32.36 66.34 -31 66 C-32.65 65.67 -34.3 65.34 -36 65 Z M69 65 C68.59250325 69.25731568 68.59250325 69.25731568 70.5 72.875 C70.995 73.24625 71.49 73.6175 72 74 C73.25156054 72.95137906 73.25156054 72.95137906 73.3125 70.625 C73.27329279 67.84916802 73.27329279 67.84916802 71 66.1875 C70.34 65.795625 69.68 65.40375 69 65 Z M11 66 C10.34 66.66 9.68 67.32 9 68 C9.99 68 10.98 68 12 68 C12.33 67.34 12.66 66.68 13 66 C12.34 66 11.68 66 11 66 Z M29 66 C30.01160848 70.39314793 30.01160848 70.39314793 33.125 73.375 C33.74375 73.58125 34.3625 73.7875 35 74 C34.67 73.01 34.34 72.02 34 71 C33.34 71 32.68 71 32 71 C31.34 69.35 30.68 67.7 30 66 C29.67 66 29.34 66 29 66 Z M55 66 C55.33 66.66 55.66 67.32 56 68 C56.33 67.34 56.66 66.68 57 66 C56.34 66 55.68 66 55 66 Z M62 66 C63 70 63 70 63 70 Z M15 67 C16.485 67.99 16.485 67.99 18 69 C18.33 68.34 18.66 67.68 19 67 C17.68 67 16.36 67 15 67 Z M59 68 C58.67 68.66 58.34 69.32 58 70 C58.33 70.99 58.66 71.98 59 73 C61.01508358 73.73323796 61.01508358 73.73323796 63 74 C63 73.34 63 72.68 63 72 C62.01 72 61.02 72 60 72 C59.67 70.68 59.34 69.36 59 68 Z M-32 69 C-31 73 -31 73 -31 73 Z M13 69 C12.67 69.66 12.34 70.32 12 71 C12.66 71 13.32 71 14 71 C13.67 70.34 13.34 69.68 13 69 Z M18 70 C18 70.99 18 71.98 18 73 C18.99 72.67 19.98 72.34 21 72 C21.33 71.01 21.66 70.02 22 69 C19.9254644 68.8509288 19.9254644 68.8509288 18 70 Z M27 69 C28 71 28 71 28 71 Z M-51 70 C-51.66 72.31 -52.32 74.62 -53 77 C-52.34 77.66 -51.68 78.32 -51 79 C-51 78.34 -51 77.68 -51 77 C-50.34 77 -49.68 77 -49 77 C-49.33 74.69 -49.66 72.38 -50 70 C-50.33 70 -50.66 70 -51 70 Z M24 70 C23.34 71.32 22.68 72.64 22 74 C22.99 73.67 23.98 73.34 25 73 C24.67 72.01 24.34 71.02 24 70 Z M75 70 C74.67 72.31 74.34 74.62 74 77 C75.485 77.99 75.485 77.99 77 79 C77 76.36 77 73.72 77 71 C76.34 70.67 75.68 70.34 75 70 Z M-39 71 C-39 71.66 -39 72.32 -39 73 C-36.69 73.66 -34.38 74.32 -32 75 C-32 74.34 -32 73.68 -32 73 C-34.31 72.34 -36.62 71.68 -39 71 Z M28 71 C28 71.66 28 72.32 28 73 C27.443125 73.268125 26.88625 73.53625 26.3125 73.8125 C23.80287477 75.10122647 21.40665764 76.52926478 19 78 C19 77.34 19 76.68 19 76 C18.01 76.33 17.02 76.66 16 77 C15.690625 78.134375 15.38125 79.26875 15.0625 80.4375 C14 84 14 84 12.1875 85.5 C9.50266407 86.11367678 7.63235559 85.73120988 5 85 C5 85.66 5 86.32 5 87 C5.99 87.33 6.98 87.66 8 88 C7.34 89.98 6.68 91.96 6 94 C7.65 93.34 9.3 92.68 11 92 C10.814375 93.0725 10.62875 94.145 10.4375 95.25 C10.0695432 98.40391546 9.95534657 100.09818492 11 103 C9.515 103.495 9.515 103.495 8 104 C8 104.66 8 105.32 8 106 C7.01 106.495 7.01 106.495 6 107 C5.37907282 108.81296615 5.37907282 108.81296615 5 111 C4.7215625 112.36125 4.7215625 112.36125 4.4375 113.75 C4.293125 114.4925 4.14875 115.235 4 116 C6.31 115.01 8.62 114.02 11 113 C11 112.34 11 111.68 11 111 C13.64 110.67 16.28 110.34 19 110 C19 109.67 19 109.34 19 109 C15.7 109 12.4 109 9 109 C9 108.34 9 107.68 9 107 C9.9075 107.04125 10.815 107.0825 11.75 107.125 C14.8782046 107.00468444 16.38614006 106.6085292 19 105 C19 105.99 19 106.98 19 108 C21.22909871 108.02714735 23.45829367 108.04646254 25.6875 108.0625 C26.92886719 108.07410156 28.17023438 108.08570313 29.44921875 108.09765625 C32.48100948 108.01427367 35.05563341 107.6366198 38 107 C39.43628457 106.93733488 40.8750555 106.91313653 42.3125 106.9375 C44.1378125 106.9684375 44.1378125 106.9684375 46 107 C42.37 107.33 38.74 107.66 35 108 C37.61020066 110.61020066 39.37516738 110.63751674 43 111 C45.07954659 110.84730539 45.07954659 110.84730539 47 110 C48.34532876 108.26693 48.34532876 108.26693 49.25 106.125 C49.58515625 105.42632812 49.9203125 104.72765625 50.265625 104.0078125 C51.17175146 101.88674091 51.17175146 101.88674091 51 99 C50.21302734 99.19916016 50.21302734 99.19916016 49.41015625 99.40234375 C37.84537708 102.03857461 25.7393257 102.67704653 14 101 C22.07665209 99.42680864 29.70463708 98.79530787 37.90991211 98.98632812 C42.71203272 99.08254235 47.2431594 98.68715838 52 98 C52.33 96.68 52.66 95.36 53 94 C52.16021606 94.01571045 52.16021606 94.01571045 51.3034668 94.03173828 C48.76485693 94.07333326 46.2263188 94.09933685 43.6875 94.125 C42.36588867 94.15013672 42.36588867 94.15013672 41.01757812 94.17578125 C40.17001953 94.18222656 39.32246094 94.18867188 38.44921875 94.1953125 C37.66893311 94.20578613 36.88864746 94.21625977 36.0847168 94.22705078 C34 94 34 94 31 92 C27.56692835 91.75729175 27.56692835 91.75729175 23.8125 91.875 C22.54019531 91.89304687 21.26789063 91.91109375 19.95703125 91.9296875 C18.98121094 91.95289063 18.00539063 91.97609375 17 92 C17 91.67 17 91.34 17 91 C26.05042618 90.1402676 34.13300865 89.90404894 43.13671875 91.5859375 C47.00810833 92.14578374 50.18001126 91.7490174 54 91 C54 90.34 54 89.68 54 89 C52.24623047 88.81824219 52.24623047 88.81824219 50.45703125 88.6328125 C48.90881329 88.46391599 47.36063839 88.29462432 45.8125 88.125 C45.04357422 88.04636719 44.27464844 87.96773437 43.48242188 87.88671875 C40.18598686 87.51887622 37.40143326 87.163374 34.3125 85.90625 C31.37474879 84.75496912 29.30033789 84.99995929 26.1875 85.375 C25.21167969 85.48585938 24.23585938 85.59671875 23.23046875 85.7109375 C22.12638672 85.85402344 22.12638672 85.85402344 21 86 C27.15232927 84.22729496 30.61219182 83.72957193 36.6875 86.0078125 C40.31897297 87.09554143 43.59472617 87.41102224 47.375 87.625 C49.24285156 87.73714844 49.24285156 87.73714844 51.1484375 87.8515625 C52.08945313 87.90054688 53.03046875 87.94953125 54 88 C54.33 86.68 54.66 85.36 55 84 C53.02 83.67 51.04 83.34 49 83 C49 83.66 49 84.32 49 85 C43.10695028 84.08603164 38.71175911 82.57413589 33.82421875 79.12109375 C31.05826714 77.42124769 28.94561731 76.81612997 25.75 77.4375 C24.88375 77.7159375 24.88375 77.7159375 24 78 C28.08261196 75.95869402 32.70336653 76.98902742 37 78 C34.3765992 75.08511023 31.28183606 73.11496102 28 71 Z M56 71 C56 72.98 56 74.96 56 77 C56.33 77 56.66 77 57 77 C57 75.02 57 73.04 57 71 C56.67 71 56.34 71 56 71 Z M67 71 C66.34 74.3 65.68 77.6 65 81 C65.99 81.33 66.98 81.66 68 82 C68.22174933 80.54364629 68.42698698 79.08477044 68.625 77.625 C68.79902344 76.40683594 68.79902344 76.40683594 68.9765625 75.1640625 C68.98429687 74.44992188 68.99203125 73.73578125 69 73 C68.34 72.34 67.68 71.68 67 71 Z M-44 72 C-43.8864371 73.64666203 -43.75882619 75.29236082 -43.625 76.9375 C-43.55539063 77.85402344 -43.48578125 78.77054687 -43.4140625 79.71484375 C-43.27742187 80.46894531 -43.14078125 81.22304687 -43 82 C-42.34 82.33 -41.68 82.66 -41 83 C-40.9729957 81.54176788 -40.95360213 80.08339325 -40.9375 78.625 C-40.92589844 77.81289062 -40.91429687 77.00078125 -40.90234375 76.1640625 C-40.85533666 73.95062858 -40.85533666 73.95062858 -42 72 C-42.66 72 -43.32 72 -44 72 Z M14 72 C15 74 15 74 15 74 Z M20 74 C19.67 74.66 19.34 75.32 19 76 C19.99 75.67 20.98 75.34 22 75 C21.34 74.67 20.68 74.34 20 74 Z M12 75 C12 75.99 12 76.98 12 78 C12.66 77.67 13.32 77.34 14 77 C14 76.34 14 75.68 14 75 C13.34 75 12.68 75 12 75 Z M70 76 C69.95875 77.27875 69.9175 78.5575 69.875 79.875 C69.85179687 80.59429687 69.82859375 81.31359375 69.8046875 82.0546875 C69.81668311 84.23863645 69.81668311 84.23863645 72 86 C72.76522801 82.64541845 72.76522801 82.64541845 73 79 C71.70735301 77.03568595 71.70735301 77.03568595 70 76 Z M-47 77 C-48.35618499 78.12534105 -48.35618499 78.12534105 -48.0625 81.0625 C-48.041875 82.031875 -48.02125 83.00125 -48 84 C-47.01 84.495 -47.01 84.495 -46 85 C-44.64560332 82.29120665 -44.93498549 79.99066732 -45 77 C-45.66 77 -46.32 77 -47 77 Z M37 78 C37.99 79.485 37.99 79.485 39 81 C39.66 81 40.32 81 41 81 C40.67 80.01 40.34 79.02 40 78 C39.01 78 38.02 78 37 78 Z M-4 79 C-3.67 79.99 -3.34 80.98 -3 82 C-1.68 81.67 -0.36 81.34 1 81 C0.34 80.34 -0.32 79.68 -1 79 C-1.99 79 -2.98 79 -4 79 Z M-7 80 C-6 82 -6 82 -6 82 Z M74 80 C74 82.97 74 85.94 74 89 C74.99 89.495 74.99 89.495 76 90 C76.04125 88.72125 76.0825 87.4425 76.125 86.125 C76.14820313 85.40570313 76.17140625 84.68640625 76.1953125 83.9453125 C76.18331689 81.76136355 76.18331689 81.76136355 74 80 Z M-51 81 C-51.185625 82.27875 -51.37125 83.5575 -51.5625 84.875 C-51.66691406 85.59429687 -51.77132812 86.31359375 -51.87890625 87.0546875 C-52.1684297 89.08140667 -52.1684297 89.08140667 -51 91 C-48.43312633 87.1496895 -49.16711276 85.41430237 -50 81 C-50.33 81 -50.66 81 -51 81 Z M41 81 C41.33 81.66 41.66 82.32 42 83 C43.32 82.67 44.64 82.34 46 82 C44.35 81.67 42.7 81.34 41 81 Z M0 83 C0.66 83.66 1.32 84.32 2 85 C2.99 84.67 3.98 84.34 5 84 C3.35 83.67 1.7 83.34 0 83 Z M7 83 C7.33 83.66 7.66 84.32 8 85 C8.99 84.67 9.98 84.34 11 84 C9.68 83.67 8.36 83.34 7 83 Z M-14 84 C-13 87 -13 87 -13 87 Z M-12 84 C-11 86 -11 86 -11 86 Z M-45 85 C-46.83695434 89.33927969 -46.83695434 89.33927969 -46.125 93.875 C-45.75375 94.57625 -45.3825 95.2775 -45 96 C-44.34 95.34 -43.68 94.68 -43 94 C-42.97691403 91.77871445 -42.97691403 91.77871445 -43.375 89.375 C-43.48585937 88.55773437 -43.59671875 87.74046875 -43.7109375 86.8984375 C-43.85402344 85.95871094 -43.85402344 85.95871094 -44 85 C-44.33 85 -44.66 85 -45 85 Z M-4 85 C-3 87 -3 87 -3 87 Z M66 85 C64.06604999 87.90092502 63.69868059 88.89674737 63.375 92.1875 C63.25125 93.445625 63.1275 94.70375 63 96 C66.17009472 94.37921338 66.17009472 94.37921338 66.51171875 91.8359375 C66.56972656 91.02382812 66.62773437 90.21171875 66.6875 89.375 C66.78611328 88.14910156 66.78611328 88.14910156 66.88671875 86.8984375 C66.94279297 85.95871094 66.94279297 85.95871094 67 85 C66.67 85 66.34 85 66 85 Z M-42 86 C-41.87625 87.27875 -41.7525 88.5575 -41.625 89.875 C-41.55539063 90.59429687 -41.48578125 91.31359375 -41.4140625 92.0546875 C-41.13625251 94.22668245 -41.13625251 94.22668245 -39 96 C-39.11362262 94.5199159 -39.24122908 93.04089926 -39.375 91.5625 C-39.44460937 90.73878906 -39.51421875 89.91507812 -39.5859375 89.06640625 C-39.72257813 88.38449219 -39.85921875 87.70257813 -40 87 C-40.66 86.67 -41.32 86.34 -42 86 Z M-30 87 C-29.55088303 89.29349068 -29.09042056 91.58476218 -28.625 93.875 C-28.36976563 95.15117187 -28.11453125 96.42734375 -27.8515625 97.7421875 C-27.27762104 101.05924456 -27.27762104 101.05924456 -25 103 C-21.04 101.515 -21.04 101.515 -17 100 C-17 99.01 -17 98.02 -17 97 C-15.02 97 -13.04 97 -11 97 C-11 96.01 -11 95.02 -11 94 C-13.97 93.505 -13.97 93.505 -17 93 C-16.34 91.02 -15.68 89.04 -15 87 C-16.62952732 85.37047268 -18.57163723 85.56513021 -20.8125 85.3125 C-22.12154297 85.15201172 -22.12154297 85.15201172 -23.45703125 84.98828125 C-26.22586307 85.00104084 -27.66019519 85.57648239 -30 87 Z M69 86 C67.18698242 90.43093198 67.18698242 90.43093198 68 95 C68.99 94.67 69.98 94.34 71 94 C70.67 91.36 70.34 88.72 70 86 C69.67 86 69.34 86 69 86 Z M-13 87 C-13 87.99 -13 88.98 -13 90 C-12.01 89.67 -11.02 89.34 -10 89 C-10.99 88.34 -11.98 87.68 -13 87 Z M-2 87 C-1 89 -1 89 -1 89 Z M1 87 C1.33 87.66 1.66 88.32 2 89 C2.33 88.34 2.66 87.68 3 87 C2.34 87 1.68 87 1 87 Z M4 88 C2.2856382 89.95927063 0.61594832 91.95880212 -1 94 C-0.01 94.33 0.98 94.66 2 95 C2 94.34 2 93.68 2 93 C2.99 92.67 3.98 92.34 5 92 C5.73323796 89.98491642 5.73323796 89.98491642 6 88 C5.34 88 4.68 88 4 88 Z M-5 89 C-4 91 -4 91 -4 91 Z M-15 90 C-14.34 90.66 -13.68 91.32 -13 92 C-13 91.34 -13 90.68 -13 90 C-13.66 90 -14.32 90 -15 90 Z M-7 90 C-6 93 -6 93 -6 93 Z M-3 90 C-2 93 -2 93 -2 93 Z M-49 91 C-50.39287806 92.17036305 -50.39287806 92.17036305 -50.1875 95.4375 C-50.39564928 99.05032721 -50.39564928 99.05032721 -48 101 C-46.80011955 95.71800407 -46.80011955 95.71800407 -49 91 Z M73 91 C71.35558108 94.44770644 71.35558108 94.44770644 71.25 98.1875 C71.94907214 100.20441549 71.94907214 100.20441549 74 102 C74.22174933 100.54364629 74.42698698 99.08477044 74.625 97.625 C74.79902344 96.40683594 74.79902344 96.40683594 74.9765625 95.1640625 C74.98429688 94.44992188 74.99203125 93.73578125 75 93 C74.34 92.34 73.68 91.68 73 91 Z M34 92 C34 92.33 34 92.66 34 93 C36.97 93 39.94 93 43 93 C43 92.67 43 92.34 43 92 C40.03 92 37.06 92 34 92 Z M-9 93 C-8 96 -8 96 -8 96 Z M-6 95 C-5 97 -5 97 -5 97 Z M4 97 C3.87882812 97.59167969 3.75765625 98.18335938 3.6328125 98.79296875 C2.72744944 103.06210379 1.66507747 106.95624043 0 111 C0 111.99 0 112.98 0 114 C0.66 114 1.32 114 2 114 C3.49821059 110.62902617 4 108.79557881 4 105 C4.99 104.67 5.98 104.34 7 104 C7 103.34 7 102.68 7 102 C7.66 101.67 8.32 101.34 9 101 C8.01 100.34 7.02 99.68 6 99 C6 98.34 6 97.68 6 97 C5.34 97 4.68 97 4 97 Z M0 98 C1 100 1 100 1 100 Z M-42 99 C-42.66 100.32 -43.32 101.64 -44 103 C-43.01 104.485 -43.01 104.485 -42 106 C-41.01 106 -40.02 106 -39 106 C-39.66 103.69 -40.32 101.38 -41 99 C-41.33 99 -41.66 99 -42 99 Z M-15 99 C-14.67 99.99 -14.34 100.98 -14 102 C-13.34 102 -12.68 102 -12 102 C-12 101.01 -12 100.02 -12 99 C-12.99 99 -13.98 99 -15 99 Z M62 99 C60.87483915 100.83284443 60.87483915 100.83284443 60 103 C60.33 103.99 60.66 104.98 61 106 C63.30671915 103.28450846 63.30671915 103.28450846 62.625 100.8125 C62.41875 100.214375 62.2125 99.61625 62 99 Z M66 99 C63.63019987 101.95377498 63.63019987 101.95377498 64 106 C65.32 105.34 66.64 104.68 68 104 C68 102.68 68 101.36 68 100 C67.34 99.67 66.68 99.34 66 99 Z M-38 100 C-37.65555119 102.47266765 -37.65555119 102.47266765 -37 105 C-36.34 105.33 -35.68 105.66 -35 106 C-35.66 104.02 -36.32 102.04 -37 100 C-37.33 100 -37.66 100 -38 100 Z M-3 100 C-2 102 -2 102 -2 102 Z M-47 101 C-48.1269298 106.09718878 -48.1269298 106.09718878 -46.5625 110.9375 C-46.046875 111.618125 -45.53125 112.29875 -45 113 C-44.34 112.34 -43.68 111.68 -43 111 C-43.27682563 106.75534029 -44.18354094 104.18382329 -47 101 Z M-2 102 C-1 104 -1 104 -1 104 Z M71 102 C68.58593083 104.51063194 68.01666567 105.71112844 67.8125 109.25 C67.9053125 110.61125 67.9053125 110.61125 68 112 C68.99 112.495 68.99 112.495 70 113 C72.47954966 108.83565666 72.47954966 108.83565666 72.6875 104.125 C72.460625 103.42375 72.23375 102.7225 72 102 C71.67 102 71.34 102 71 102 Z M-18 103 C-18 103.66 -18 104.32 -18 105 C-17.01 104.67 -16.02 104.34 -15 104 C-15.99 103.67 -16.98 103.34 -18 103 Z M-9 104 C-9.33 104.66 -9.66 105.32 -10 106 C-10.66 106.66 -11.32 107.32 -12 108 C-11.67 108.66 -11.34 109.32 -11 110 C-7.535 109.505 -7.535 109.505 -4 109 C-4.33 107.68 -4.66 106.36 -5 105 C-6.32 104.67 -7.64 104.34 -9 104 Z M-24 105 C-22.63855967 110.19822672 -20.53269829 113.09543873 -17 117 C-15.68 115.35 -14.36 113.7 -13 112 C-13.66 110.35 -14.32 108.7 -15 107 C-16.32 107 -17.64 107 -19 107 C-19 106.34 -19 105.68 -19 105 C-20.65 105 -22.3 105 -24 105 Z M-42 108 C-42.2236337 109.41433206 -42.42826476 110.83167618 -42.625 112.25 C-42.74101562 113.03890625 -42.85703125 113.8278125 -42.9765625 114.640625 C-43.00319395 117.32152459 -42.36592084 118.72694089 -41 121 C-40.34 121 -39.68 121 -39 121 C-39.33 116.71 -39.66 112.42 -40 108 C-40.66 108 -41.32 108 -42 108 Z M65 108 C63.05951918 114.95685299 63.05951918 114.95685299 64 122 C66.13555518 119.40019369 67.7001511 117.39828755 68 114 C67.12949221 110.80376352 67.12949221 110.80376352 66 108 C65.67 108 65.34 108 65 108 Z M-37 109 C-37.33 109.33 -37.66 109.66 -38 110 C-37.71884585 114.82947756 -37.71884585 114.82947756 -35.4375 118.9375 C-34.963125 119.288125 -34.48875 119.63875 -34 120 C-32.85052105 116.44706507 -32.9131063 115.20023331 -34.4375 111.6875 C-34.953125 110.800625 -35.46875 109.91375 -36 109 C-36.33 109 -36.66 109 -37 109 Z M61 109 C58.223578 112.77593392 57.67565678 115.35108046 58 120 C58.66 120 59.32 120 60 120 C62.47954966 115.83565666 62.47954966 115.83565666 62.6875 111.125 C62.460625 110.42375 62.23375 109.7225 62 109 C61.67 109 61.34 109 61 109 Z M-33 110 C-32 112 -32 112 -32 112 Z M26.375 109.5 C25.14910156 109.63921875 25.14910156 109.63921875 23.8984375 109.78125 C23.27195312 109.8534375 22.64546875 109.925625 22 110 C22.639375 110.12375 23.27875 110.2475 23.9375 110.375 C24.9584375 110.684375 24.9584375 110.684375 26 111 C26.33 111.66 26.66 112.32 27 113 C27 112.34 27 111.68 27 111 C28.65 111 30.3 111 32 111 C32.33 110.34 32.66 109.68 33 109 C30.75625048 109 28.60431457 109.24522119 26.375 109.5 Z M56 111 C57 114 57 114 57 114 Z M-32 112 C-31.65555119 114.47266765 -31.65555119 114.47266765 -31 117 C-30.34 117.33 -29.68 117.66 -29 118 C-29.66 116.02 -30.32 114.04 -31 112 C-31.33 112 -31.66 112 -32 112 Z M7 116 C7 116.66 7 117.32 7 118 C7.66 118 8.32 118 9 118 C9 117.34 9 116.68 9 116 C9.99 116 10.98 116 12 116 C12.66 117.32 13.32 118.64 14 120 C15.32 119.67 16.64 119.34 18 119 C18 118.01 18 117.02 18 116 C19.32 115.34 20.64 114.68 22 114 C13.88368056 112.39646276 13.88368056 112.39646276 7 116 Z M24 113 C24.99 114.485 24.99 114.485 26 116 C26 115.01 26 114.02 26 113 C25.34 113 24.68 113 24 113 Z M28 114 C28.99 114.66 29.98 115.32 31 116 C30.3125 117.9375 30.3125 117.9375 29 120 C26.375 120.75 26.375 120.75 24 121 C24.495 122.485 24.495 122.485 25 124 C24.34 124 23.68 124 23 124 C22.505 122.515 22.505 122.515 22 121 C21.67 121.99 21.34 122.98 21 124 C19.35 123.01 17.7 122.02 16 121 C16 121.66 16 122.32 16 123 C12.06225823 123.36630156 10.43460229 123.30233203 7.125 121 C6.42375 120.34 5.7225 119.68 5 119 C5 119.99 5 120.98 5 122 C3.35 122.33 1.7 122.66 0 123 C-0.33 122.01 -0.66 121.02 -1 120 C-1.99 120.33 -2.98 120.66 -4 121 C-6.625 120.1875 -6.625 120.1875 -9 119 C-9.33 118.34 -9.66 117.68 -10 117 C-11.65 117 -13.3 117 -15 117 C-12.17895707 123.51225831 -6.17168728 126.7532298 0.1875 129.375 C9.3978548 132.40690103 18.48781655 132.02623377 27.43359375 128.328125 C34.6641956 124.58626103 39.97551173 119.3128186 45 113 C39.80396208 110.40198104 33.12282362 111.89832877 28 114 Z M-12 114 C-12 114.33 -12 114.66 -12 115 C-10.02 115 -8.04 115 -6 115 C-6 114.67 -6 114.34 -6 114 C-7.98 114 -9.96 114 -12 114 Z M55 114 C56 116 56 116 56 116 Z M-6 116 C-5.67 116.66 -5.34 117.32 -5 118 C-4.34 117.67 -3.68 117.34 -3 117 C-3.99 116.67 -4.98 116.34 -6 116 Z M1 116 C1.33 117.65 1.66 119.3 2 121 C2.33 119.68 2.66 118.36 3 117 C2.34 116.67 1.68 116.34 1 116 Z M-38 119 C-38.50379029 121.28694223 -38.50379029 121.28694223 -38 124 C-36.16038352 125.99022836 -34.20813852 127.38989899 -32 129 C-32.33 127.35 -32.66 125.7 -33 124 C-33.66 124 -34.32 124 -35 124 C-35.66 122.35 -36.32 120.7 -37 119 C-37.33 119 -37.66 119 -38 119 Z M-32 119 C-32.33 119.99 -32.66 120.98 -33 122 C-30.03 122.99 -27.06 123.98 -24 125 C-26.51070754 121.33112448 -26.51070754 121.33112448 -30.25 119.1875 C-30.8275 119.125625 -31.405 119.06375 -32 119 Z M49 124 C49.99 124.495 49.99 124.495 51 125 C53.03144641 124.06553465 55.03533587 123.06775224 57 122 C56.67 121.01 56.34 120.02 56 119 C53.59244254 119 50.75431241 122.50696816 49 124 Z M60 121 C60 121.99 60 122.98 60 124 C59.01 124 58.02 124 57 124 C56.67 125.98 56.34 127.96 56 130 C60.28070998 126.22406041 60.28070998 126.22406041 62 121 C61.34 121 60.68 121 60 121 Z M-30 125 C-29.02640613 128.27481575 -28.30933359 129.76205109 -25.5625 131.875 C-22.95990704 133.35936531 -22.95990704 133.35936531 -20 132 C-21.28627711 130.82739389 -22.57919783 129.6620717 -23.875 128.5 C-24.59429687 127.8503125 -25.31359375 127.200625 -26.0546875 126.53125 C-27.84931098 124.79382728 -27.84931098 124.79382728 -30 125 Z M49.4375 127.3125 C48.50744141 127.95638672 48.50744141 127.95638672 47.55859375 128.61328125 C45.71619614 130.02047805 45.71619614 130.02047805 45 133 C49.9699297 131.95356507 49.9699297 131.95356507 53.9375 129 C55.15638508 127.08307957 55.15638508 127.08307957 55 125 C52.43116028 125 51.51838307 125.83980823 49.4375 127.3125 Z " fill="#37899f" transform="translate(174,55)"/>
<path d="M0 0 C3.22899426 -0.0875127 6.45768116 -0.14056146 9.6875 -0.1875 C11.05551758 -0.22520508 11.05551758 -0.22520508 12.45117188 -0.26367188 C21.03230051 -0.35728419 21.03230051 -0.35728419 25 3 C27.48386059 6.72579089 27.3804212 8.58711402 27 13 C24.8 17.6 24.8 17.6 22 19 C22.59501207 23.17534335 24.99326682 26.21224557 27.375 29.5625 C27.77460938 30.13935547 28.17421875 30.71621094 28.5859375 31.31054688 C30.20174399 33.61466567 31.78943777 35.790817 33.7890625 37.77734375 C35 39 35 39 35 41 C31.52518395 41.55624526 28.45585211 41.74833489 25 41 C22.3074945 38.40943791 20.8007385 35.24523334 19 32 C17.78276628 30.30925465 16.53305184 28.6413579 15.25 27 C14.67765625 26.2575 14.1053125 25.515 13.515625 24.75 C12.10113009 22.89084459 12.10113009 22.89084459 10 22 C10.33 28.27 10.66 34.54 11 41 C8.03 41 5.06 41 2 41 C2 29.45 2 17.9 2 6 C1.01 5.67 0.02 5.34 -1 5 C-0.67 3.35 -0.34 1.7 0 0 Z M10 5 C10 8.96 10 12.92 10 17 C15.54374378 17.56773296 15.54374378 17.56773296 17.8125 15.75 C19.17905461 13.73613005 19.77903238 12.4306438 20 10 C19.00974907 7.33393981 18.5722047 6.28610235 16 5 C14.02 5 12.04 5 10 5 Z " fill="#37899f" transform="translate(209,240)"/>
<path d="M0 0 C4.00749252 3.00561939 6.31208303 6.29160003 8 11 C8.93922156 17.81508327 8.02268558 23.35779165 4 29 C-0.51725943 33.40143227 -4.63806406 35.0919318 -10.875 35.375 C-16.08797703 35.2508815 -18.84666117 34.15653751 -23 31 C-27.57488659 25.22119588 -28.75439582 20.32449764 -28 13 C-26.11299224 7.14034434 -23.59534883 2.93539947 -18.0625 -0.04296875 C-11.85183235 -2.5826882 -6.29273472 -2.20446121 0 0 Z M-19 8 C-21.5549221 12.88767706 -21.52665731 17.77865132 -20 23 C-18.43419996 25.9582243 -16.75847539 28.0857132 -14 30 C-10.88023268 30.88962115 -9.34864895 30.58468474 -6 30 C-2.93752045 28.20245766 -1.43265034 26.76228869 0.3125 23.6875 C1.92114713 17.39915214 1.10303896 12.6710712 -2 7 C-4.6354796 4.22206204 -6.17694414 3.15760644 -9.9375 2.4375 C-14.17080056 3.215045 -16.04697947 4.91275127 -19 8 Z " fill="#37899f" transform="translate(119,247)"/>
<path d="M0 0 C-0.33 2.64 -0.66 5.28 -1 8 C-3.96175123 7.38722388 -5.38058783 6.74627478 -8 5 C-12.46551588 4.41721233 -16.66989909 4.54719969 -20.9375 6 C-24.61058345 9.56177789 -25.93869867 13.47898292 -26.0625 18.5703125 C-25.72349283 23.30228763 -25.22304686 27.33239495 -22 31 C-17.20003652 34.23718467 -13.60088015 34.4445143 -8 34 C-5.26225382 33.07254351 -5.26225382 33.07254351 -3 32 C-2.01 32 -1.02 32 0 32 C-0.3125 34.875 -0.3125 34.875 -1 38 C-6.36796006 41.57864004 -13.9548831 41.65139315 -20.25 40.5 C-25.70275739 38.79245593 -30.21763212 34.93285952 -33.16796875 30.078125 C-35.95283652 23.5408767 -35.9997585 16.93408251 -33.5 10.3125 C-30.67693712 4.66637424 -26.5717461 1.27943144 -20.64453125 -0.84375 C-14.26606661 -2.38512778 -6.02235081 -3.01117541 0 0 Z " fill="#37899f" transform="translate(91,241)"/>
<path d="M0 0 C1.98 0 3.96 0 6 0 C9.16575127 7.48821935 12.22788484 15.01536528 15.25 22.5625 C15.60320312 23.44325195 15.95640625 24.32400391 16.3203125 25.23144531 C16.65289062 26.06385742 16.98546875 26.89626953 17.328125 27.75390625 C17.6262207 28.49970947 17.92431641 29.2455127 18.23144531 30.01391602 C18.86787042 31.65855333 19.44233802 33.32701407 20 35 C17.03 35 14.06 35 11 35 C10.49440092 33.56445975 9.9957251 32.1264798 9.5 30.6875 C9.2215625 29.88699219 8.943125 29.08648437 8.65625 28.26171875 C8 26 8 26 8 23 C4.37 23 0.74 23 -3 23 C-3.66 26.96 -4.32 30.92 -5 35 C-7.64 35 -10.28 35 -13 35 C-12.39919913 31.49468054 -11.47801217 28.48302246 -10.0390625 25.234375 C-9.64976562 24.34363281 -9.26046875 23.45289063 -8.859375 22.53515625 C-8.45203125 21.61605469 -8.0446875 20.69695312 -7.625 19.75 C-4.750505 13.24993227 -2.10772123 6.79224111 0 0 Z M2 10 C0.74335022 12.90600261 0 14.79604584 0 18 C1.98 18 3.96 18 6 18 C5.01 15.36 4.02 12.72 3 10 C2.67 10 2.34 10 2 10 Z " fill="#37899f" transform="translate(298,246)"/>
<path d="M0 0 C1.98 0 3.96 0 6 0 C7.53152491 4.01958384 9.06141641 8.03978449 10.58984375 12.06054688 C11.10925957 13.42627455 11.62910952 14.79183721 12.14941406 16.15722656 C12.90025141 18.12781501 13.64948899 20.09900552 14.3984375 22.0703125 C14.84880371 23.25383301 15.29916992 24.43735352 15.76318359 25.65673828 C16.90845568 28.75254482 17.976337 31.86215953 19 35 C16.03 35 13.06 35 10 35 C9.01 31.04 8.02 27.08 7 23 C2.05 23.495 2.05 23.495 -3 24 C-3.33 25.44375 -3.66 26.8875 -4 28.375 C-4.185625 29.18710937 -4.37125 29.99921875 -4.5625 30.8359375 C-5.06605239 32.95874951 -5.06605239 32.95874951 -5 35 C-7.64 35 -10.28 35 -13 35 C-13.33 34.34 -13.66 33.68 -14 33 C-12.886232 30.21407084 -11.70756861 27.52648903 -10.4375 24.8125 C-7.65031949 18.71738926 -4.96187379 12.60925943 -2.5 6.375 C-2.24532959 5.73022705 -1.99065918 5.0854541 -1.72827148 4.42114258 C-1.14926213 2.94857273 -0.57413299 1.4744779 0 0 Z M2 10 C-0.2013866 13.80427492 -0.2013866 13.80427492 -1 18 C0.98 18 2.96 18 5 18 C4.34 15.36 3.68 12.72 3 10 C2.67 10 2.34 10 2 10 Z " fill="#37899f" transform="translate(184,246)"/>
<path d="M0 0 C1.03125 -0.01417969 2.0625 -0.02835938 3.125 -0.04296875 C5.96545203 0.18473053 7.59107948 0.72245939 10 2.1875 C9.34 4.1675 8.68 6.1475 8 8.1875 C4.125 7.3125 4.125 7.3125 3 6.1875 C-1.58214628 5.60999809 -4.99734483 5.58172917 -9 8 C-12.13644077 11.43048209 -12.29916317 14.56865795 -12.20703125 19.125 C-11.87363659 22.44636564 -10.9471337 24.48663712 -9 27.1875 C-4.32499158 30.30417228 -1.56784007 30.35986779 3.9375 29.375 C5.62958181 28.99923486 7.31898662 28.6100332 9 28.1875 C8.625 31.125 8.625 31.125 8 34.1875 C4.96843143 35.70328428 2.12033386 35.43721927 -1.25 35.5 C-2.55453125 35.53738281 -3.8590625 35.57476562 -5.203125 35.61328125 C-10.69771752 34.9971181 -13.67384019 32.65702844 -17.3125 28.625 C-20.66752779 23.77884875 -20.47203811 18.87867651 -20 13.1875 C-18.24176111 7.80935751 -14.66224914 4.26558707 -10 1.1875 C-6.70331756 0.01658531 -3.4777047 0.02173565 0 0 Z " fill="#37899f" transform="translate(275,245.8125)"/>
<path d="M0 0 C0.9796875 -0.00257813 1.959375 -0.00515625 2.96875 -0.0078125 C5.5 0.125 5.5 0.125 7.5 1.125 C7.17 3.105 6.84 5.085 6.5 7.125 C1.71518987 6.19462025 1.71518987 6.19462025 -0.625 5.4375 C-2.82914667 4.85047363 -2.82914667 4.85047363 -5.5 7.125 C-5.36850528 9.04134331 -5.36850528 9.04134331 -4.5 11.125 C-2.29816023 12.73764322 -2.29816023 12.73764322 0.375 14.0625 C4.46135057 16.20098375 6.48004816 17.93425577 8.5 22.125 C8.931566 25.57752804 8.71887328 27.60213606 7.375 30.8125 C4.94893345 33.80464875 3.14415533 34.8427972 -0.5 36.125 C-4.75346695 36.5248986 -8.43356753 36.48047749 -12.5 35.125 C-12.17 32.815 -11.84 30.505 -11.5 28.125 C-10.7265625 28.3415625 -10.7265625 28.3415625 -9.9375 28.5625 C-6.78600245 29.28976867 -3.72261187 29.82661001 -0.5 30.125 C0.16 29.465 0.82 28.805 1.5 28.125 C1.58676985 26.14569758 1.58676985 26.14569758 0.5 24.125 C-1.96127313 22.03406733 -1.96127313 22.03406733 -4.9375 20.125 C-11.26340669 15.90223048 -11.26340669 15.90223048 -12.5 12.125 C-12.35713475 8.12477313 -12.11728563 5.88167271 -9.5625 2.75 C-6.20883114 0.10771544 -4.22330246 -0.01111395 0 0 Z " fill="#37899f" transform="translate(140.5,245.875)"/>
<path d="M0 0 C9.9 0 19.8 0 30 0 C29.67 1.98 29.34 3.96 29 6 C25.31352622 5.39987636 21.66439084 4.73287817 18 4 C18.33 13.9 18.66 23.8 19 34 C16.36 34 13.72 34 11 34 C11 24.1 11 14.2 11 4 C7.37 4.66 3.74 5.32 0 6 C0 4.02 0 2.04 0 0 Z " fill="#37899f" transform="translate(149,247)"/>
<path d="M0 0 C3.1953125 -0.37109375 3.1953125 -0.37109375 7 0 C9.0395359 2.01822732 10.35890444 3.58595037 11.875 5.9375 C12.26429687 6.50146484 12.65359375 7.06542969 13.0546875 7.64648438 C14.04956079 9.0887052 15.02619444 10.54347108 16 12 C16.33 12.33 16.66 12.66 17 13 C17 8.71 17 4.42 17 0 C18.65 0 20.3 0 22 0 C22 7.92 22 15.84 22 24 C16.23685941 22.84737188 14.93336133 20.98911133 11.75 16.5 C10.86992812 15.30198308 9.98972644 14.1040615 9.109375 12.90625 C8.06523438 11.46765625 8.06523438 11.46765625 7 10 C6.67 9.67 6.34 9.34 6 9 C6 13.62 6 18.24 6 23 C4.35 23 2.7 23 1 23 C1 16.4 1 9.8 1 3 C0.34 3 -0.32 3 -1 3 C-0.67 2.01 -0.34 1.02 0 0 Z " fill="#37899f" transform="translate(79,211)"/>
<path d="M0 0 C2.56314499 -0.08132187 5.12368418 -0.14064175 7.6875 -0.1875 C8.40873047 -0.21263672 9.12996094 -0.23777344 9.87304688 -0.26367188 C14.46944849 -0.32663628 17.35792225 0.14279345 21 3 C23.46617577 6.81136256 23.21170391 10.49362991 22.6171875 14.84375 C21.65585931 18.20231429 19.69615352 19.89568506 17 22 C12.53794887 24.23102556 5.78092876 23.04346299 1 23 C1 16.4 1 9.8 1 3 C0.34 3 -0.32 3 -1 3 C-0.67 2.01 -0.34 1.02 0 0 Z M6 3 C5.97315321 5.64590014 5.95323643 8.29153096 5.9375 10.9375 C5.92912109 11.69224609 5.92074219 12.44699219 5.91210938 13.22460938 C5.90347559 15.14994313 5.94775667 17.07535581 6 19 C6.33 19.33 6.66 19.66 7 20 C11.669997 19.68215105 11.669997 19.68215105 15.875 17.8125 C17.52261692 15.15800608 17.87533099 13.11672513 18 10 C16.75038302 7.10615014 15.70803472 5.4956243 13.125 3.6875 C10.65743796 2.88917111 8.579019 2.95318612 6 3 Z " fill="#37899f" transform="translate(245,211)"/>
<path d="M0 0 C2.56314499 -0.08132187 5.12368418 -0.14064175 7.6875 -0.1875 C8.40873047 -0.21263672 9.12996094 -0.23777344 9.87304688 -0.26367188 C14.46944849 -0.32663628 17.35792225 0.14279345 21 3 C23.46617577 6.81136256 23.21170391 10.49362991 22.6171875 14.84375 C21.65585931 18.20231429 19.69615352 19.89568506 17 22 C12.53794887 24.23102556 5.78092876 23.04346299 1 23 C1 16.4 1 9.8 1 3 C0.34 3 -0.32 3 -1 3 C-0.67 2.01 -0.34 1.02 0 0 Z M6 3 C5.97315321 5.64590014 5.95323643 8.29153096 5.9375 10.9375 C5.92912109 11.69224609 5.92074219 12.44699219 5.91210938 13.22460938 C5.90347559 15.14994313 5.94775667 17.07535581 6 19 C6.33 19.33 6.66 19.66 7 20 C11.64870092 19.67141742 11.64870092 19.67141742 15.875 17.875 C17.62149255 14.96417908 17.82332188 12.3568842 18 9 C17.53253634 6.64678152 17.53253634 6.64678152 16 5 C12.54358402 3.13166704 9.8668852 2.92227366 6 3 Z " fill="#37899f" transform="translate(200,211)"/>
<path d="M0 0 C2.56314499 -0.08132187 5.12368418 -0.14064175 7.6875 -0.1875 C8.40873047 -0.21263672 9.12996094 -0.23777344 9.87304688 -0.26367188 C14.47569198 -0.32672181 17.33698433 0.16948789 21 3 C23.32820538 5.99340692 23.41478357 9.2346929 23.32421875 12.96875 C22.79002404 16.31551204 21.13123774 18.44251471 19 21 C15.31912647 23.45391569 12.55644412 23.22802759 8.3125 23.125 C7.61060547 23.11597656 6.90871094 23.10695312 6.18554688 23.09765625 C4.45688475 23.07413704 2.72839855 23.03826713 1 23 C1.01047363 22.43490723 1.02094727 21.86981445 1.03173828 21.28759766 C1.07324788 18.73344347 1.0993096 16.17936018 1.125 13.625 C1.14175781 12.73554688 1.15851563 11.84609375 1.17578125 10.9296875 C1.18222656 10.07890625 1.18867188 9.228125 1.1953125 8.3515625 C1.20578613 7.56604004 1.21625977 6.78051758 1.22705078 5.97119141 C1.17990127 3.765535 1.17990127 3.765535 -1 2 C-0.67 1.34 -0.34 0.68 0 0 Z M6 3 C5.97315321 5.64590014 5.95323643 8.29153096 5.9375 10.9375 C5.92912109 11.69224609 5.92074219 12.44699219 5.91210938 13.22460938 C5.90347559 15.14994313 5.94775667 17.07535581 6 19 C7.09354906 20.29524348 7.09354906 20.29524348 9.75 20.375 C13.14278395 20.250241 13.14278395 20.250241 15.875 17.9375 C18.52580508 14.27315181 18.64496629 12.43414325 18 8 C17.23608998 5.48130668 17.23608998 5.48130668 15 4 C12.00762978 3.37393673 9.05114366 3.12793055 6 3 Z " fill="#37899f" transform="translate(276,211)"/>
<path d="M0 0 C2.10304477 -0.1080023 4.20766909 -0.18558987 6.3125 -0.25 C8.07013672 -0.31960937 8.07013672 -0.31960937 9.86328125 -0.390625 C13 0 13 0 14.9296875 1.8203125 C16.43506698 4.88601233 15.91242998 6.77140161 15 10 C14.34 10.66 13.68 11.32 13 12 C13.5053125 12.62648437 14.010625 13.25296875 14.53125 13.8984375 C15.1809375 14.71570313 15.830625 15.53296875 16.5 16.375 C17.47453125 17.59316406 17.47453125 17.59316406 18.46875 18.8359375 C20 21 20 21 20 23 C18.02 23.33 16.04 23.66 14 24 C11.69 20.7 9.38 17.4 7 14 C7 16.97 7 19.94 7 23 C5.02 23 3.04 23 1 23 C1 16.4 1 9.8 1 3 C0.34 3 -0.32 3 -1 3 C-0.67 2.01 -0.34 1.02 0 0 Z M6 3 C6 5.31 6 7.62 6 10 C7.65 9.34 9.3 8.68 11 8 C10.67 6.68 10.34 5.36 10 4 C8.68 3.67 7.36 3.34 6 3 Z " fill="#37899f" transform="translate(153,211)"/>
<path d="M0 0 C2.97 0 5.94 0 9 0 C9.33 11.22 9.66 22.44 10 34 C7.36 34 4.72 34 2 34 C2 24.1 2 14.2 2 4 C1.01 4 0.02 4 -1 4 C-0.67 2.68 -0.34 1.36 0 0 Z " fill="#37899f" transform="translate(244,247)"/>
<path d="M0 0 C1.98 0 3.96 0 6 0 C6 6.27 6 12.54 6 19 C8.64 19 11.28 19 14 19 C15.51421001 17.48578999 15.21309856 16.07527232 15.31640625 13.96484375 C15.35830078 13.15595703 15.40019531 12.34707031 15.44335938 11.51367188 C15.48267578 10.66353516 15.52199219 9.81339844 15.5625 8.9375 C15.60568359 8.08349609 15.64886719 7.22949219 15.69335938 6.34960938 C15.79976702 4.23327963 15.90041731 2.11666187 16 0 C17.65 0 19.3 0 21 0 C21.44847441 17.96389173 21.44847441 17.96389173 17.4375 22.9375 C13.72016048 24.55787877 9.96958175 24.85014651 6 24 C3.265625 22.47265625 3.265625 22.47265625 1 20 C0.46223019 17.14774025 0.21075307 14.85237699 0.1875 12 C0.16236328 11.2884375 0.13722656 10.576875 0.11132812 9.84375 C0.00418361 6.56206669 0 3.28328593 0 0 Z " fill="#37899f" transform="translate(56,211)"/>
<path d="M0 0 C1.31352006 3.43711109 2.62564032 6.87475488 3.9375 10.3125 C4.49727539 11.77719727 4.49727539 11.77719727 5.06835938 13.27148438 C5.60493164 14.67817383 5.60493164 14.67817383 6.15234375 16.11328125 C6.48226318 16.97735596 6.81218262 17.84143066 7.15209961 18.73168945 C7.80370942 20.47488173 8.41150067 22.234502 9 24 C7.02 24 5.04 24 3 24 C1.515 20.535 1.515 20.535 0 17 C-1.98 17 -3.96 17 -6 17 C-6.66 19.31 -7.32 21.62 -8 24 C-9.98 24 -11.96 24 -14 24 C-12.58084012 20.18041728 -11.13667113 16.37078692 -9.6875 12.5625 C-9.28337891 11.47388672 -8.87925781 10.38527344 -8.46289062 9.26367188 C-8.06650391 8.22919922 -7.67011719 7.19472656 -7.26171875 6.12890625 C-6.71970825 4.69140015 -6.71970825 4.69140015 -6.16674805 3.22485352 C-4.64227265 0.31785533 -3.21895802 0 0 0 Z M-3 8 C-3.66 9.65 -4.32 11.3 -5 13 C-3.68 13 -2.36 13 -1 13 C-1.33 11.35 -1.66 9.7 -2 8 C-2.33 8 -2.66 8 -3 8 Z " fill="#37899f" transform="translate(235,210)"/>
<path d="M0 0 C1.98 0 3.96 0 6 0 C7.65 4.62 9.3 9.24 11 14 C13.45073284 11.54926716 13.76460449 9.77044624 14.625 6.4375 C14.88539062 5.44621094 15.14578125 4.45492187 15.4140625 3.43359375 C16.03901353 1.25515354 16.03901353 1.25515354 16 0 C18.31 0 20.62 0 23 0 C19.7 7.92 16.4 15.84 13 24 C11.68 24 10.36 24 9 24 C7.68323522 20.75171176 6.37233863 17.50108665 5.0625 14.25 C4.68931641 13.32960937 4.31613281 12.40921875 3.93164062 11.4609375 C3.57392578 10.57148438 3.21621094 9.68203125 2.84765625 8.765625 C2.51773682 7.94868164 2.18781738 7.13173828 1.84790039 6.29003906 C1.07597895 4.20520661 0.4893803 2.16632348 0 0 Z " fill="#37899f" transform="translate(112,211)"/>
<path d="M0 0 C0.66 0.33 1.32 0.66 2 1 C1.67 2.65 1.34 4.3 1 6 C-1.31 5.67 -3.62 5.34 -6 5 C-4.84624136 8.2305242 -3.9784701 9.01274218 -0.9375 10.8125 C2 13 2 13 3.1875 16.4375 C3 20 3 20 1.125 22.9375 C-3.02988616 25.67972486 -6.16549414 25.47397116 -11 25 C-12 22 -12 22 -11 19 C-8.69 19.66 -6.38 20.32 -4 21 C-3.67 19.68 -3.34 18.36 -3 17 C-3.5775 16.6596875 -4.155 16.319375 -4.75 15.96875 C-10.61029437 12.14328007 -10.61029437 12.14328007 -11.70703125 8.92578125 C-11.8125 6.8125 -11.8125 6.8125 -11 3 C-7.60336944 -0.19682876 -4.53712252 -0.40329978 0 0 Z " fill="#37899f" transform="translate(186,210)"/>
<path d="M0 0 C4.95 0 9.9 0 15 0 C14.67 1.65 14.34 3.3 14 5 C11.36 4.34 8.72 3.68 6 3 C6 4.98 6 6.96 6 9 C8.31 9 10.62 9 13 9 C13 10.32 13 11.64 13 13 C10.69 13 8.38 13 6 13 C6.33 14.98 6.66 16.96 7 19 C10.34252724 19.07427838 12.8035914 19.06546953 16 18 C15.67 19.98 15.34 21.96 15 24 C8.07 23.505 8.07 23.505 1 23 C1.02320313 21.65164062 1.04640625 20.30328125 1.0703125 18.9140625 C1.08906798 17.15104719 1.10726842 15.38802591 1.125 13.625 C1.14175781 12.73554688 1.15851563 11.84609375 1.17578125 10.9296875 C1.18222656 10.07890625 1.18867188 9.228125 1.1953125 8.3515625 C1.20578613 7.56604004 1.21625977 6.78051758 1.22705078 5.97119141 C1.17990127 3.765535 1.17990127 3.765535 -1 2 C-0.67 1.34 -0.34 0.68 0 0 Z " fill="#37899f" transform="translate(300,211)"/>
<path d="M0 0 C4.95 0 9.9 0 15 0 C14.67 1.65 14.34 3.3 14 5 C11.69 4.67 9.38 4.34 7 4 C6.67 5.65 6.34 7.3 6 9 C8.64 9 11.28 9 14 9 C13.67 10.32 13.34 11.64 13 13 C10.69 13 8.38 13 6 13 C6.33 15.31 6.66 17.62 7 20 C9.97 19.34 12.94 18.68 16 18 C15.67 19.98 15.34 21.96 15 24 C8.07 23.505 8.07 23.505 1 23 C1.01160156 21.67484375 1.02320313 20.3496875 1.03515625 18.984375 C1.04453684 17.23958474 1.05363676 15.49479296 1.0625 13.75 C1.07087891 12.87730469 1.07925781 12.00460938 1.08789062 11.10546875 C1.09111328 10.26113281 1.09433594 9.41679687 1.09765625 8.546875 C1.10289307 7.77182617 1.10812988 6.99677734 1.11352539 6.19824219 C1.05353557 3.66963865 1.05353557 3.66963865 0 0 Z " fill="#37899f" transform="translate(136,211)"/>
<path d="M0 0 C1.67542976 0.28604898 3.34385343 0.61781233 5 1 C4.6875 2.875 4.6875 2.875 4 5 C3.01 5.66 2.02 6.32 1 7 C0.360625 7.53625 -0.27875 8.0725 -0.9375 8.625 C-3 10 -3 10 -7 10 C-7 10.66 -7 11.32 -7 12 C-7.66 12 -8.32 12 -9 12 C-9 11.34 -9 10.68 -9 10 C-9.66 10.66 -10.32 11.32 -11 12 C-14.07803185 13.86020186 -16.68489007 14.34354395 -20.25 14.625 C-21.14203125 14.69976562 -22.0340625 14.77453125 -22.953125 14.8515625 C-23.62859375 14.90054688 -24.3040625 14.94953125 -25 15 C-24.34 13.02 -23.68 11.04 -23 9 C-21.96875 8.979375 -20.9375 8.95875 -19.875 8.9375 C-13.85812673 8.23282115 -4.4231134 4.4231134 0 0 Z M1 1 C1.33 1.99 1.66 2.98 2 4 C2 3.01 2 2.02 2 1 C1.67 1 1.34 1 1 1 Z M-6 6 C-6 6.66 -6 7.32 -6 8 C-4.68 7.34 -3.36 6.68 -2 6 C-3.32 6 -4.64 6 -6 6 Z M-20 11 C-19 13 -19 13 -19 13 Z " fill="#37899f" transform="translate(211,181)"/>
<path d="M0 0 C0.99 0.66 1.98 1.32 3 2 C2.34 2.66 1.68 3.32 1 4 C1.33 4.33 1.66 4.66 2 5 C2.33 4.34 2.66 3.68 3 3 C3.99 3 4.98 3 6 3 C6 3.66 6 4.32 6 5 C6.72058594 5.13535156 7.44117188 5.27070313 8.18359375 5.41015625 C10.86059823 5.9708049 13.44236751 6.65591488 16.0625 7.4375 C16.89910156 7.68371094 17.73570312 7.92992187 18.59765625 8.18359375 C20.86043418 8.95257032 22.89430807 9.8766401 25 11 C24.67 12.65 24.34 14.3 24 16 C18.06 15.01 18.06 15.01 12 14 C12 13.34 12 12.68 12 12 C10.35 11.67 8.7 11.34 7 11 C7 10.34 7 9.68 7 9 C5.35 9 3.7 9 2 9 C2 8.34 2 7.68 2 7 C0.68 6.67 -0.64 6.34 -2 6 C-2 3 -2 3 0 0 Z M5 5 C5 8 5 8 5 8 Z M10 8 C10 8.99 10 9.98 10 11 C10.99 11.33 11.98 11.66 13 12 C13 11.34 13 10.68 13 10 C12.34 10 11.68 10 11 10 C10.67 9.34 10.34 8.68 10 8 Z " fill="#37899f" transform="translate(159,180)"/>
<path d="M0 0 C1.98 0 3.96 0 6 0 C6.33 7.59 6.66 15.18 7 23 C5.02 23 3.04 23 1 23 C1 16.4 1 9.8 1 3 C0.34 3 -0.32 3 -1 3 C-0.67 2.01 -0.34 1.02 0 0 Z " fill="#37899f" transform="translate(104,211)"/>
<path d="M0 0 C1.98 0 3.96 0 6 0 C6.33 7.59 6.66 15.18 7 23 C5.02 23 3.04 23 1 23 C1.01047363 22.43490723 1.02094727 21.86981445 1.03173828 21.28759766 C1.07324788 18.73344347 1.0993096 16.17936018 1.125 13.625 C1.14175781 12.73554688 1.15851563 11.84609375 1.17578125 10.9296875 C1.18222656 10.07890625 1.18867188 9.228125 1.1953125 8.3515625 C1.20578613 7.56604004 1.21625977 6.78051758 1.22705078 5.97119141 C1.17990127 3.765535 1.17990127 3.765535 -1 2 C-0.67 1.34 -0.34 0.68 0 0 Z " fill="#37899f" transform="translate(191,211)"/>
<path d="M0 0 C1.65 0 3.3 0 5 0 C5.6875 1.8125 5.6875 1.8125 6 4 C4.5625 5.75 4.5625 5.75 3 7 C2.01 6.67 1.02 6.34 0 6 C0 5.34 0 4.68 0 4 C-0.66 4 -1.32 4 -2 4 C-1.34 2.68 -0.68 1.36 0 0 Z " fill="#37899f" transform="translate(159,83)"/>
<path d="M0 0 C2.31 0 4.62 0 7 0 C7.042721 1.66611905 7.04063832 3.33382885 7 5 C6 6 6 6 2.9375 6.0625 C1.4834375 6.0315625 1.4834375 6.0315625 0 6 C0 4.02 0 2.04 0 0 Z M3 2 C3.33 2.66 3.66 3.32 4 4 C4.33 3.34 4.66 2.68 5 2 C4.34 2 3.68 2 3 2 Z " fill="#37899f" transform="translate(183,75)"/>
</svg>