<svg width="20" height="20" viewBox="0 0 20 20" fill="none" xmlns="http://www.w3.org/2000/svg">
<path d="M8.9675 0H13.1298V14.9796C10.9978 15.2962 9.42828 15.4208 7.73008 15.4208C2.64633 15.4167 0 13.6333 0 10.2083C0 6.90835 2.80703 4.76666 7.15687 4.76666C7.83187 4.76666 8.34609 4.80837 8.9675 4.93333V0ZM9.11336 7.63282C8.62586 7.5078 8.22414 7.46615 7.70984 7.46615C5.60461 7.46615 4.38859 8.47446 4.38859 10.2415C4.38859 11.962 5.55109 12.9119 7.68312 12.9119C8.14375 12.9119 8.51875 12.8916 9.11336 12.8291V7.63282Z" fill="#2BA977"/>
<path d="M19.9365 5.16882V12.6689C19.9365 15.2518 19.6901 16.4939 18.9669 17.5647C18.2919 18.5943 17.4026 19.2435 15.5652 19.9605L11.7029 18.5314C13.5403 17.8609 14.4295 17.2684 14.9974 16.3643C15.5919 15.4397 15.7794 14.3689 15.7794 11.5522V5.16889L19.9365 5.16882ZM15.36 0H19.5223V3.32084H15.36V0Z" fill="#2BA977"/>
</svg>
