<svg width="20" height="20" viewBox="0 0 20 20" fill="none" xmlns="http://www.w3.org/2000/svg">
<path d="M18.1875 1.05159C17.9074 1.72321 17.5487 2.3593 17.1191 2.94659C16.1811 2.00467 15.0652 1.25861 13.8363 0.751798C12.6073 0.244985 11.2899 -0.0124715 9.96065 -0.00560343C8.63135 0.00126465 7.31668 0.27232 6.09308 0.791804C4.86947 1.31129 3.76134 2.06884 2.83312 3.0204C1.9049 3.97197 1.1751 5.09856 0.686159 6.33469C0.197218 7.57082 -0.041109 8.89182 -0.014967 10.2209C0.011175 11.5499 0.301265 12.8605 0.838437 14.0765C1.37561 15.2924 2.14914 16.3895 3.11407 17.3038L3.48469 17.631C4.89903 18.8227 6.61547 19.5999 8.44412 19.8767C10.2728 20.1535 12.1424 19.919 13.846 19.1992C15.5497 18.4794 17.021 17.3024 18.0972 15.7983C19.1735 14.2942 19.8127 12.5217 19.9441 10.6769C20.2175 8.12378 19.4678 4.89253 18.1878 1.0519L18.1875 1.05159ZM4.54063 17.3619C4.43391 17.4938 4.29047 17.591 4.12846 17.6413C3.96645 17.6917 3.79316 17.6928 3.6305 17.6446C3.46784 17.5964 3.32314 17.5011 3.21468 17.3706C3.10623 17.2402 3.03891 17.0805 3.02124 16.9118C3.00357 16.7431 3.03634 16.5729 3.1154 16.4228C3.19447 16.2727 3.31628 16.1494 3.46542 16.0686C3.61456 15.9877 3.78433 15.953 3.95325 15.9686C4.12217 15.9843 4.28265 16.0497 4.41438 16.1566C4.59083 16.2998 4.70324 16.5071 4.72691 16.7331C4.75058 16.9591 4.68358 17.1853 4.54063 17.3619ZM18.1463 14.3588C15.6713 17.6557 10.3869 16.5432 6.99876 16.7032C6.99876 16.7032 6.39813 16.7385 5.79344 16.8375C5.79344 16.8375 6.02157 16.7407 6.31313 16.6303C8.6925 15.8022 9.81719 15.6428 11.2625 14.8991C13.9838 13.5157 16.6756 10.486 17.235 7.33659C16.1997 10.3663 13.0559 12.9716 10.1944 14.0297C8.23313 14.7525 4.69001 15.4566 4.69001 15.4566L4.54719 15.38C2.13657 14.2082 2.06219 8.98722 6.44626 7.30347C8.36594 6.56409 10.2025 6.97003 12.2756 6.47534C14.4894 5.9494 17.0506 4.29097 18.0928 2.12659C19.2584 5.58909 20.6628 11.0085 18.1447 14.361L18.1463 14.3588Z" fill="#68BD45"/>
</svg>
