<svg width="28" height="20" viewBox="0 0 28 20" fill="none" xmlns="http://www.w3.org/2000/svg">
<g filter="url(#filter0_d_141_3)">
<path d="M20.5 3.51489C19.7501 3.2571 19.0881 2.7936 18.59 2.17752C18.041 1.4911 17.3421 0.939089 16.5465 0.563714C15.7509 0.188339 14.8799 -0.000453929 14 0.0117765C12.8164 -0.0718835 11.6446 0.292469 10.718 1.03228C9.79143 1.77208 9.17804 2.83306 9 4.00393C9.35067 3.41832 9.87845 2.95885 10.5074 2.69162C11.1363 2.4244 11.834 2.36321 12.5 2.51685C13.2487 2.78214 13.9096 3.24834 14.41 3.8642C14.962 4.54514 15.6623 5.09144 16.4577 5.46155C17.2531 5.83166 18.1226 6.01581 19 6C20.1836 6.08366 21.3554 5.71931 22.282 4.9795C23.2086 4.23969 23.822 3.17871 24 2.00785C23.6557 2.60046 23.1296 3.06687 22.4994 3.33824C21.8691 3.6096 21.1682 3.67153 20.5 3.51489ZM7.5 8.48511C8.24995 8.7429 8.91192 9.2064 9.41 9.82248C9.95895 10.5089 10.6579 11.0609 11.4535 11.4363C12.2491 11.8117 13.1201 12.0005 14 11.9882C15.1836 12.0719 16.3554 11.7075 17.282 10.9677C18.2086 10.2279 18.822 9.16694 19 7.99607C18.6493 8.58168 18.1215 9.04115 17.4926 9.30838C16.8637 9.5756 16.166 9.63679 15.5 9.48315C14.7513 9.21786 14.0904 8.75166 13.59 8.1358C13.0366 7.45655 12.336 6.91144 11.5409 6.5415C10.7459 6.17155 9.8771 5.98641 9 6C7.81637 5.91634 6.64458 6.28069 5.71801 7.0205C4.79143 7.76031 4.17804 8.82129 4 9.99215C4.34431 9.39954 4.87041 8.93313 5.50063 8.66176C6.13086 8.3904 6.83181 8.32847 7.5 8.48511Z" fill="black"/>
</g>
<defs>
<filter id="filter0_d_141_3" x="0" y="0" width="28" height="20" filterUnits="userSpaceOnUse" color-interpolation-filters="sRGB">
<feFlood flood-opacity="0" result="BackgroundImageFix"/>
<feColorMatrix in="SourceAlpha" type="matrix" values="0 0 0 0 0 0 0 0 0 0 0 0 0 0 0 0 0 0 127 0" result="hardAlpha"/>
<feOffset dy="4"/>
<feGaussianBlur stdDeviation="2"/>
<feComposite in2="hardAlpha" operator="out"/>
<feColorMatrix type="matrix" values="0 0 0 0 0 0 0 0 0 0 0 0 0 0 0 0 0 0 0.25 0"/>
<feBlend mode="normal" in2="BackgroundImageFix" result="effect1_dropShadow_141_3"/>
<feBlend mode="normal" in="SourceGraphic" in2="effect1_dropShadow_141_3" result="shape"/>
</filter>
</defs>
</svg>
